# xmcd
#
# Track frame offsets: 
#        150
#        24856
#        45382
#        67113
#        83278
#        99025
#        114738
#        141102
#        164024
#        184654
#        213560
#        226416
#        240554
#
# Disc length: 3524 seconds
#
# Revision: 0
# Processed by: cddbd v1.5.2PL0 Copyright (c) Steve Scherf et al.
# Submitted via: ExactAudioCopy v1.0b4
#
DISCID=a10dc20d
DTITLE=Elvin Bishop - Raisin' Hell Revue
DYEAR=2011
DGENRE=Blues Rock, Modern Electric Blues
TTITLE0=Callin' All Cows
TTITLE1=Whole Lotta Lovin'
TTITLE2=Fooled Around And Fell In Love
TTITLE3=What The Hell Is Goin' On
TTITLE4=The Night Time Is The Right Time
TTITLE5=Down In Virginia
TTITLE6=Rock My Soul
TTITLE7=Cryin' Fool
TTITLE8=River's Invitation
TTITLE9=Albert Collins Story - Dyin' Flu
TTITLE10=Tore Up Over You
TTITLE11=It Hurts Me Too
TTITLE12=Bye Bye Baby
EXTD=
EXTT0=
EXTT1=
EXTT2=
EXTT3=
EXTT4=
EXTT5=
EXTT6=
EXTT7=
EXTT8=
EXTT9=
EXTT10=
EXTT11=
EXTT12=
PLAYORDER=
